<?xml version="1.0" encoding="UTF-8" standalone="no"?>
<!-- Created with Inkscape (http://www.inkscape.org/) -->

<svg
   width="170"
   height="170"
   viewBox="0 0 44.979168 44.979168"
   version="1.1"
   id="svg5"
   inkscape:version="1.1 (c68e22c387, 2021-05-23)"
   sodipodi:docname="fedora-logo-icon.svg"
   xmlns:inkscape="http://www.inkscape.org/namespaces/inkscape"
   xmlns:sodipodi="http://sodipodi.sourceforge.net/DTD/sodipodi-0.dtd"
   xmlns="http://www.w3.org/2000/svg"
   xmlns:svg="http://www.w3.org/2000/svg">
  <sodipodi:namedview
     id="namedview7"
     pagecolor="#ffffff"
     bordercolor="#666666"
     borderopacity="1.0"
     inkscape:pageshadow="2"
     inkscape:pageopacity="0.0"
     inkscape:pagecheckerboard="0"
     inkscape:document-units="mm"
     showgrid="false"
     inkscape:zoom="0.54677765"
     inkscape:cx="587.07593"
     inkscape:cy="295.36686"
     inkscape:window-width="1920"
     inkscape:window-height="1027"
     inkscape:window-x="-8"
     inkscape:window-y="-8"
     inkscape:window-maximized="1"
     inkscape:current-layer="layer1"
     width="252mm"
     units="px">
    <inkscape:grid
       type="xygrid"
       id="grid824"
       originx="-21.156764"
       originy="-52.895329" />
  </sodipodi:namedview>
  <defs
     id="defs2" />
  <g
     inkscape:label="レイヤー 1"
     inkscape:groupmode="layer"
     id="layer1"
     transform="translate(-21.156763,-52.89533)">
    <path
       id="path974"
       style="fill:#00ffff;stroke:none;stroke-width:0.183498px;stroke-linecap:butt;stroke-linejoin:miter;stroke-opacity:1"
       d="m 43.080308,55.541295 c -9.462174,0.05623 -18.258464,18.587163 -18.1082,29.769858 l 5.092975,9.917057 c -2.459196,-7.799642 2.7312,-15.57206 13.581263,-26.775599 10.850225,11.20367 16.040477,18.976355 13.581263,26.776053 l 5.092975,-9.917057 c 0.150265,-11.182695 -8.646025,-29.713633 -18.1082,-29.769855 -0.18849,-0.0012 -0.377084,0.0049 -0.566038,0.01869 v -4.58e-4 c -0.188953,-0.01374 -0.377549,-0.01981 -0.566038,-0.01869 z m 0.566038,0.03236 v 4.74e-4 a 3.5003583,6.4102133 0 0 1 3.026616,3.204813 3.5003583,6.4102133 0 0 1 0,6.410081 3.5003583,6.4102133 0 0 1 -3.026616,3.204806 v -4.9e-4 a 3.5003583,6.4102133 0 0 1 -3.026616,-3.204814 3.5003583,6.4102133 0 0 1 0,-6.410082 3.5003583,6.4102133 0 0 1 3.026616,-3.204803 z" />
  </g>
</svg>
